<svg width="98" height="31" viewBox="0 0 98 31" fill="none" xmlns="http://www.w3.org/2000/svg">
<rect width="98" height="31" fill="#FFFBFB"/>
<path d="M66.5867 10.5673C66.1533 6.54333 63.6439 3.14533 60.0166 1.7146C56.3894 0.28386 52.2603 1.04394 49.3403 3.61479C47.5837 2.07228 45.3024 1.15571 42.9299 1.04394C40.1011 0.909807 37.432 1.87108 35.4016 3.77128C33.5082 5.53734 32.3447 7.97407 32.1166 10.612C32.0025 11.9309 32.1394 13.2499 32.5729 14.6583L14.8701 14.6136C14.3911 14.6136 14.0032 14.8371 13.7751 15.2172C13.5242 15.6419 13.5242 16.1784 13.7751 16.6032C14.0032 16.9832 14.3911 17.2068 14.8701 17.2068L34.4435 17.2515C34.8998 17.2515 35.2648 17.0503 35.4929 16.715C35.7438 16.3349 35.7895 15.7984 35.5841 15.3513C34.0557 11.8862 34.626 8.21997 37.067 5.80561C38.5726 4.33016 40.5573 3.57008 42.6333 3.63715C44.8233 3.70421 46.9221 4.7102 48.3821 6.36449C48.6102 6.61039 48.9524 6.76688 49.3403 6.76688C49.7281 6.76688 50.0703 6.63275 50.2984 6.36449C52.5569 3.81599 55.956 2.92178 59.0129 4.08425C61.7048 5.11259 63.6439 7.68345 63.9632 10.6343C64.0545 11.4838 64.8301 11.9086 65.5373 11.8415C66.2217 11.7521 66.6552 11.2379 66.5867 10.5673Z" fill="#2A2A2A"/>
<path d="M10.399 27.1549H7.25079C6.86297 27.1549 6.56641 26.8419 6.56641 26.4842V5.202C6.56641 4.82196 6.88579 4.53134 7.25079 4.53134H10.4218C10.8096 4.53134 11.1061 4.84432 11.1061 5.202V26.4842C11.0833 26.8419 10.7868 27.1549 10.399 27.1549Z" fill="#2A2A2A"/>
<path d="M4.87817 24.4946H1.68438C1.31938 24.4946 1 24.2039 1 23.8239V7.79518C1 7.4375 1.29657 7.12453 1.68438 7.12453H4.87817C5.24318 7.12453 5.56256 7.41515 5.56256 7.79518V23.8239C5.56256 24.2039 5.26599 24.4946 4.87817 24.4946Z" fill="#2A2A2A"/>
<path d="M15.9198 29.4575H12.7716C12.3838 29.4575 12.0645 29.1445 12.0645 28.7645V2.87707C12.0645 2.49703 12.3838 2.18405 12.7716 2.18405H15.9198C16.3076 2.18405 16.627 2.49703 16.627 2.87707V28.7868C16.627 29.1668 16.3076 29.4575 15.9198 29.4575Z" fill="#2A2A2A"/>
<path d="M83.9702 15.2172C83.7421 14.8372 83.3543 14.6136 82.8752 14.6136L64.3284 14.6583C63.9178 14.6583 63.3703 14.8819 63.1649 15.329C61.0662 19.8895 56.823 23.3098 53.7889 25.5006C52.4429 26.4619 51.097 27.3561 49.751 28.1609L49.6141 28.228C49.4088 28.3398 49.4088 28.3398 49.2263 28.2727C48.7016 28.0715 48.1769 27.7138 47.6751 27.3785C47.4697 27.2443 47.2644 27.1102 47.0819 26.9761C45.7132 26.1042 44.5269 25.2771 43.4319 24.4499C41.2647 22.7733 39.4853 21.0966 37.9796 19.2635C37.5462 18.727 36.8618 18.6599 36.3143 19.0847C35.7668 19.5094 35.5158 20.3589 36.0633 21.0296C37.5234 22.7956 39.2571 24.4723 41.3787 26.1266C42.6106 27.0879 43.9109 28.0268 45.2569 28.8986C45.9413 29.3457 46.6713 29.7929 47.4241 30.24L47.5838 30.3294C48.1085 30.6424 48.7016 31 49.4088 31C49.5457 31 49.7054 30.9777 49.8651 30.9553C50.4354 30.8212 50.9829 30.4635 51.4848 30.1505C51.6217 30.0611 51.7357 29.9717 51.8726 29.9046C52.6711 29.4128 53.4695 28.8763 54.268 28.3398C56.5036 26.7972 58.3971 25.2771 60.0852 23.6899C62.3893 21.499 64.0547 19.3753 65.1725 17.2515L82.8752 17.2068C83.3543 17.2068 83.7421 16.9833 83.9702 16.6032C84.2212 16.1785 84.2212 15.642 83.9702 15.2172Z" fill="#FBF138"/>
<path d="M88.6014 27.1549H91.7724C92.1602 27.1549 92.4567 26.8419 92.4567 26.4842V5.20198C92.4567 4.82194 92.1374 4.53133 91.7724 4.53133H88.6014C88.2136 4.53133 87.917 4.8443 87.917 5.20198V26.4842C87.917 26.8419 88.2136 27.1549 88.6014 27.1549Z" fill="#FBF138"/>
<path d="M94.1219 24.4946H97.3157C97.6807 24.4946 98 24.204 98 23.824V7.79526C98 7.43758 97.7035 7.1246 97.3157 7.1246H94.1219C93.7569 7.1246 93.4375 7.41522 93.4375 7.79526V23.824C93.4375 24.204 93.7341 24.4946 94.1219 24.4946Z" fill="#FBF138"/>
<path d="M83.0807 29.4575H86.2289C86.6167 29.4575 86.9361 29.1445 86.9361 28.7645V2.87707C86.9361 2.49703 86.6167 2.18405 86.2289 2.18405H83.0807C82.6929 2.18405 82.3735 2.49703 82.3735 2.87707V28.7868C82.3735 29.1668 82.6929 29.4575 83.0807 29.4575Z" fill="#FBF138"/>
</svg>
